<?xml version="1.0" encoding="utf-8"?>
<?xml-stylesheet type="text/xsl" href="rss1.xsl"?>
<rss version="2.0" xmlns:atom="http://www.w3.org/2005/Atom" xmlns:content="http://purl.org/rss/1.0/modules/content/" xmlns:dc="http://purl.org/dc/elements/1.1/" xmlns:media="http://search.yahoo.com/mrss/">
<channel>
 <title>Getty</title>
 <link>http://www.gettyimg.com/</link>
 <atom:link href="http://www.gettyimg.com/" rel="self" type="application/rss+xml" />

 
                <item>
                <title><![CDATA[【UPSCALED】imase - NIGHT DANCER [4K | HEVC 10-bit | PCM | Dolby TrueHD with Dolby Atmos]]]></title>
                <link><![CDATA[https://sharemania.us/threads/imase-night-dancer-4k-hevc-10-bit-pcm-dolby-truehd-with-dolby-atmos.228584/]]></link>
                <description><![CDATA[<article>
<blockquote class="messageText SelectQuoteContainer ugc baseHtml">
<img src="https://images2.imgbox.com/3d/2d/AFncVcns_o.jpg" class="bbCodeImage LbImage" alt="[​IMG]" data-url="https://images2.imgbox.com/3d/2d/AFncVcns_o.jpg" style=""> <br>
<br>
<b>Genre: <span style="color: #0059b3">J-Pop, Indie Pop, Dance-Pop</span><br>
Year: <span style="color: #0059b3">2022</span><br>
Video Source: <span style="color: #0059b3">Apple Music, 1080p, thanks SonMaxime</span><br>
Audio Source: <span style="color: #0059b3">Qobuz &amp; Amazon Music, thanks moi &amp; SonMaxime</span></b><br>
<br>
"<b>NIGHT DANCER</b>" is a song by Japanese singer-songwriter, Youtuber and Tiktoker Imase (Japanese: イマセ, born November 9, 2000). It's the sixth track from his first EP, <i>Pop Cube</i>, released in 2022.<br>
Imase debuted in 2021 with his single "have a nice day" only a year after learning how to write and compose music, according to his signed label Universal Music Japan. His success with the viral single "Night Dancer" only a year later has given him the "monster rookie" nickname.<br>
<br>
A former member of alternative rock band Supercar, lyricist, and producer Junji Ishiwatari said that Imase's sudden rise to stardom was "a true event that is stranger than fiction". Five months into his debut, he was hired to sing the Pocari Sweat jingle which is something that only the top artists were ever offered, and his TikTok views were speeding towards 1.1 billion. This was even before "Night Dancer" came into the world.<br>
<br>
He became a topic of interest on South Korean blogging forums after "Night Dancer" entered the Melon 100 chart, the first ever Japanese song and Japanese singer to achieve this.<br>
<br>
The music video, directed by MESS, was released on YouTube on august 30, 2022. In september 2023 it has reached 127 million views.<br>
<br>
<b>Release Info</b><br>
The video track is upscaled to from 1080p to 4K with Topaz Video AI and encoded to HEVC 10-bit.<br>
The Dolby Atmos track is downloaded and converted by SonMaxime and is synced by muxing.<br>
The PCM tracks are lossless (Qobuz, CD quality) and are synced with Adobe Audition.<br>
The timed lyrics are downloaded from YouTube. Enable the subtitles to see the lyrics.<br>
<br>
<b>This release contains 4 audio tracks</b><br>
01. Original version<br>
02. Dolby Atmos mix<br>
03. BIG Naughty Remix<br>
04. Instrumental<br>
<br>
<div class="ToggleTriggerAnchor bbCodeSpoilerContainer">
<button type="button" class="button bbCodeSpoilerButton ToggleTrigger Tooltip JsOnly" data-target="> .SpoilerTarget"><span>Spoiler: <span class="SpoilerTitle">Media Info</span></span></button>
<div class="SpoilerTarget bbCodeSpoilerText">
<div class="bbCodeBlock bbCodeCode">
<div class="type">Code:</div>
<pre>General
Unique ID                      : 91977640133141904398148957423399291825 (0x45323FC749D2432E57F526055BD74BB1)
Complete name                  : E:\Music Videos\Nieuw\imase - NIGHT DANCER.mkv
Format                         : Matroska
Format version                 : Version 4 / Version 2
File size                      : 651 MiB
Duration                       : 3 min 30 s
Overall bit rate mode          : Variable
Overall bit rate               : 26.0 Mb/s
Frame rate                     : 23.976 FPS
Encoded date                   : 2023-09-17 11:00:22 UTC
Writing application            : mkvmerge v76.0 ('Celebration') 64-bit
Writing library                : libebml v1.4.4 + libmatroska v1.7.1

Video
ID                             : 1
Format                         : HEVC
Format/Info                    : High Efficiency Video Coding
Format profile                 : Main 10@L5@Main
Codec ID                       : V_MPEGH/ISO/HEVC
Duration                       : 3 min 28 s
Bit rate                       : 16.7 Mb/s
Width                          : 3 840 pixels
Height                         : 2 160 pixels
Display aspect ratio           : 16:9
Frame rate mode                : Constant
Frame rate                     : 23.976 (24000/1001) FPS
Color space                    : YUV
Chroma subsampling             : 4:2:0
Bit depth                      : 10 bits
Bits/(Pixel*Frame)             : 0.084
Stream size                    : 413 MiB (63%)
Default                        : Yes
Forced                         : No
Color range                    : Limited
Color primaries                : BT.709
Transfer characteristics       : BT.709
Matrix coefficients            : BT.709

Audio #1
ID                             : 2
Format                         : PCM
Format settings                : Little / Signed
Codec ID                       : A_PCM/INT/LIT
Duration                       : 3 min 28 s
Bit rate mode                  : Constant
Bit rate                       : 1 411.2 kb/s
Channel(s)                     : 2 channels
Sampling rate                  : 44.1 kHz
Frame rate                     : 25.004 FPS (1764 SPF)
Bit depth                      : 16 bits
Stream size                    : 35.0 MiB (5%)
Title                          : Original Version
Language                       : Japanese
Default                        : Yes
Forced                         : No

Audio #2
ID                             : 3
Format                         : MLP FBA 16-ch
Format/Info                    : Meridian Lossless Packing FBA with 16-channel presentation
Commercial name                : Dolby TrueHD with Dolby Atmos
Codec ID                       : A_TRUEHD
Duration                       : 3 min 29 s
Bit rate mode                  : Variable
Bit rate                       : 5 248 kb/s
Maximum bit rate               : 6 483 kb/s
Channel(s)                     : 8 channels
Channel layout                 : L R C LFE Ls Rs Lb Rb
Sampling rate                  : 48.0 kHz
Frame rate                     : 1 200.000 FPS (40 SPF)
Compression mode               : Lossless
Delay relative to video        : 354 ms
Stream size                    : 131 MiB (20%)
Title                          : Dolby Atmos
Language                       : Japanese
Default                        : Yes
Forced                         : No
Number of dynamic objects      : 15
Bed channel count              : 1 channel
Bed channel configuration      : LFE

Audio #3
ID                             : 4
Format                         : PCM
Format settings                : Little / Signed
Codec ID                       : A_PCM/INT/LIT
Duration                       : 3 min 28 s
Bit rate mode                  : Constant
Bit rate                       : 1 411.2 kb/s
Channel(s)                     : 2 channels
Sampling rate                  : 44.1 kHz
Frame rate                     : 25.004 FPS (1764 SPF)
Bit depth                      : 16 bits
Stream size                    : 35.0 MiB (5%)
Title                          : BIG Naughty Remix
Language                       : Japanese
Default                        : Yes
Forced                         : No

Audio #4
ID                             : 5
Format                         : PCM
Format settings                : Little / Signed
Codec ID                       : A_PCM/INT/LIT
Duration                       : 3 min 28 s
Bit rate mode                  : Constant
Bit rate                       : 1 411.2 kb/s
Channel(s)                     : 2 channels
Sampling rate                  : 44.1 kHz
Frame rate                     : 25.004 FPS (1764 SPF)
Bit depth                      : 16 bits
Stream size                    : 35.0 MiB (5%)
Title                          : Instrumental
Default                        : Yes
Forced                         : No

Text #1
ID                             : 6
Format                         : UTF-8
Codec ID                       : S_TEXT/UTF8
Codec ID/Info                  : UTF-8 Plain Text
Duration                       : 3 min 28 s
Bit rate                       : 54 b/s
Frame rate                     : 0.206 FPS
Count of elements              : 43
Stream size                    : 1.38 KiB (0%)
Language                       : English
Default                        : No
Forced                         : No

Text #2
ID                             : 7
Format                         : UTF-8
Codec ID                       : S_TEXT/UTF8
Codec ID/Info                  : UTF-8 Plain Text
Duration                       : 3 min 28 s
Bit rate                       : 60 b/s
Frame rate                     : 0.206 FPS
Count of elements              : 43
Stream size                    : 1.54 KiB (0%)
Language                       : Spanish
Default                        : No
Forced                         : No

Text #3
ID                             : 8
Format                         : UTF-8
Codec ID                       : S_TEXT/UTF8
Codec ID/Info                  : UTF-8 Plain Text
Duration                       : 3 min 28 s
Bit rate                       : 56 b/s
Frame rate                     : 0.206 FPS
Count of elements              : 43
Stream size                    : 1.43 KiB (0%)
Language                       : Japanese
Default                        : No
Forced                         : No

Text #4
ID                             : 9
Format                         : UTF-8
Codec ID                       : S_TEXT/UTF8
Codec ID/Info                  : UTF-8 Plain Text
Duration                       : 3 min 28 s
Bit rate                       : 58 b/s
Frame rate                     : 0.206 FPS
Count of elements              : 43
Stream size                    : 1.48 KiB (0%)
Language                       : Korean
Default                        : No
Forced                         : No

Text #5
ID                             : 10
Format                         : UTF-8
Codec ID                       : S_TEXT/UTF8
Codec ID/Info                  : UTF-8 Plain Text
Duration                       : 3 min 28 s
Bit rate                       : 146 b/s
Frame rate                     : 0.206 FPS
Count of elements              : 43
Stream size                    : 3.74 KiB (0%)
Language                       : Thai
Default                        : No
Forced                         : No

Text #6
ID                             : 11
Format                         : UTF-8
Codec ID                       : S_TEXT/UTF8
Codec ID/Info                  : UTF-8 Plain Text
Duration                       : 3 min 28 s
Bit rate                       : 49 b/s
Frame rate                     : 0.206 FPS
Count of elements              : 43
Stream size                    : 1.26 KiB (0%)
Language                       : Chinese
Default                        : No
Forced                         : No
</pre>
</div></div>
</div><br>
<div class="bbCodeBlock bbCodeVfcHH HiddenContent">
<div class="attribution type">Hidden Content:</div>
<blockquote>You must reply before you can see the hidden data contained here.</blockquote>
</div>
<div class="messageTextEndMarker">&nbsp;</div>
</blockquote>
</article>]]></description>
                <author><![CDATA[ADHDerby]]></author>
                </item>

                </channel></rss>